Coordinates
version=1
nRows=60
nColumns=12
inDegrees=yes

Units are S.I. units (second, meters, Newtons, ...)
Angles are in degrees

endheader
time	SC_y	SC_z	SC_x	AC_y	AC_z	AC_x	GH_y	GH_z	GH_yy	EL_x	PS_y
       0.0              -55.95         -3.539          21.56           47.4          8.285         -15.39         -120.6          8.327          -82.1           70.3          38.34
   0.01705              -55.95         -3.536          21.56           47.4          8.283         -15.39         -120.6          8.323         -82.08           70.3          38.35
   0.03411              -55.94         -3.533          21.56           47.4          8.282         -15.39         -120.6          8.319         -82.07          70.29          38.36
   0.05116              -55.94          -3.53          21.56           47.4          8.281         -15.39         -120.5          8.315         -82.05          70.29          38.37
   0.06821              -55.93         -3.526          21.56           47.4          8.279         -15.39         -120.5          8.311         -82.03          70.29          38.38
   0.08527              -55.92         -3.522          21.56           47.4          8.278         -15.39         -120.4          8.307         -82.01          70.28           38.4
    0.1023              -55.92         -3.518          21.56           47.4          8.276         -15.39         -120.4          8.302         -81.98          70.28          38.41
    0.1194              -55.91         -3.514          21.56           47.4          8.274         -15.38         -120.3          8.297         -81.96          70.27          38.42
    0.1364               -55.9         -3.509          21.55           47.4          8.272         -15.38         -120.3          8.291         -81.93          70.27          38.44
    0.1535              -55.89         -3.504          21.55           47.4           8.27         -15.38         -120.2          8.285          -81.9          70.26          38.46
    0.1705              -55.88         -3.498          21.55           47.4          8.268         -15.38         -120.2          8.279         -81.87          70.26          38.47
    0.1876              -55.87         -3.492          21.55           47.4          8.265         -15.38         -120.1          8.272         -81.84          70.25          38.49
    0.2046              -55.86         -3.486          21.55           47.4          8.263         -15.38         -120.0          8.264         -81.81          70.24          38.51
    0.2217              -55.85         -3.479          21.55           47.4           8.26         -15.38         -119.9          8.256         -81.77          70.24          38.53
    0.2387              -55.84         -3.472          21.55          47.39          8.257         -15.38         -119.8          8.248         -81.73          70.23          38.56
    0.2558              -55.83         -3.464          21.54          47.39          8.254         -15.38         -119.8          8.238         -81.69          70.22          38.58
    0.2729              -55.81         -3.455          21.54          47.39           8.25         -15.38         -119.7          8.228         -81.64          70.21          38.61
    0.2899               -55.8         -3.445          21.54          47.39          8.246         -15.38         -119.5          8.217         -81.58           70.2          38.64
     0.307              -55.78         -3.435          21.54          47.39          8.242         -15.38         -119.4          8.205         -81.53          70.19          38.67
     0.324              -55.76         -3.424          21.53          47.39          8.238         -15.38         -119.3          8.192         -81.47          70.18          38.71
    0.3411              -55.74         -3.411          21.53          47.39          8.232         -15.38         -119.1          8.177          -81.4          70.17          38.75
    0.3581              -55.72         -3.397          21.53          47.38          8.227         -15.38         -119.0          8.161         -81.32          70.15          38.79
    0.3752              -55.69         -3.382          21.52          47.38          8.221         -15.38         -118.8          8.143         -81.24          70.14          38.84
    0.3922              -55.66         -3.365          21.52          47.38          8.214         -15.37         -118.6          8.123         -81.15          70.12           38.9
    0.4093              -55.63         -3.346          21.51          47.38          8.206         -15.37         -118.4          8.102         -81.04           70.1          38.96
    0.4263               -55.6         -3.325          21.51          47.37          8.198         -15.37         -118.1          8.077         -80.93          70.08          39.02
    0.4434              -55.56         -3.302           21.5          47.37          8.188         -15.37         -117.8           8.05          -80.8          70.06           39.1
    0.4604              -55.51         -3.276          21.49          47.37          8.178         -15.37         -117.5          8.019         -80.66          70.03          39.18
    0.4775              -55.46         -3.246          21.49          47.36          8.165         -15.36         -117.2          7.984         -80.49           70.0          39.27
    0.4946              -55.41         -3.212          21.48          47.36          8.152         -15.36         -116.8          7.945         -80.31          69.97          39.38
    0.5116              -55.34         -3.173          21.47          47.35          8.136         -15.36         -116.3            7.9          -80.1          69.93           39.5
    0.5287              -55.27         -3.129          21.46          47.34          8.118         -15.36         -115.8          7.848         -79.86          69.88          39.65
    0.5457              -55.18         -3.078          21.44          47.34          8.097         -15.35         -115.2          7.788         -79.58          69.83          39.81
    0.5628              -55.08         -3.018          21.43          47.33          8.073         -15.35         -114.5          7.719         -79.25          69.77           40.0
    0.5798              -54.97         -2.949          21.41          47.32          8.045         -15.34         -113.7          7.638         -78.87           69.7          40.22
    0.5969              -54.83         -2.867          21.39           47.3          8.012         -15.34         -112.7          7.542         -78.42          69.61          40.48
    0.6139              -54.67         -2.769          21.36          47.29          7.972         -15.33         -111.6          7.429         -77.89          69.51          40.79
     0.631              -54.48         -2.652          21.33          47.27          7.925         -15.32         -110.2          7.292         -77.25           69.4          41.16
     0.648              -54.24         -2.511           21.3          47.25          7.867         -15.31         -108.5          7.128         -76.48          69.25          41.61
    0.6651              -53.95         -2.338          21.25          47.23          7.797          -15.3         -106.5          6.926         -75.53          69.08          42.15
    0.6821               -53.6         -2.125           21.2          47.19          7.711         -15.28         -104.0          6.678         -74.37          68.86          42.83
    0.6992              -53.15         -1.859          21.13          47.15          7.603         -15.26         -100.9          6.368         -72.92          68.59          43.67
    0.7162               -52.6         -1.525          21.04           47.1          7.467         -15.24         -96.92          5.977         -71.09          68.25          44.74
    0.7333              -51.89         -1.099          20.93          47.04          7.295         -15.21         -91.91          5.481         -68.76          67.81          46.09
    0.7504              -50.98        -0.5542          20.79          46.96          7.074         -15.17          -85.5          4.846         -65.78          67.26          47.82
    0.7674              -49.82         0.1449          20.61          46.86           6.79         -15.11         -77.26          4.031         -61.96          66.54          50.04
    0.7845              -48.33          1.038          20.38          46.72          6.428         -15.05         -66.75           2.99         -57.08          65.63          52.87
    0.8015              -46.46          2.161          20.09          46.56          5.973         -14.96         -53.53          1.681         -50.94          64.49          56.43
    0.8186              -44.18          3.529          19.73          46.35          5.418         -14.86         -37.42        0.08525         -43.46           63.1          60.78
    0.8356              -41.54          5.115          19.32          46.12          4.775         -14.75         -18.74         -1.764         -34.79          61.48          65.81
    0.8527              -38.68          6.833          18.88          45.86          4.078         -14.62          1.478         -3.766         -25.41          59.73          71.26
    0.8697              -35.82           8.55          18.44          45.61          3.382         -14.49           21.7         -5.769         -16.02          57.98          76.71
    0.8868              -33.18          10.14          18.03          45.37          2.739         -14.37          40.37         -7.618         -7.349          56.36          81.75
    0.9038               -30.9           11.5          17.67          45.17          2.184         -14.27          56.49         -9.213         0.1308          54.97          86.09
    0.9209              -29.04          12.63          17.38           45.0          1.728         -14.19          69.71         -10.52          6.268          53.83          89.66
    0.9379              -27.55          13.52          17.15          44.87          1.366         -14.12          80.22         -11.56          11.15          52.92          92.49
     0.955              -26.38          14.22          16.97          44.76          1.083         -14.07          88.45         -12.38          14.97           52.2          94.71
    0.9721              -25.48          14.76          16.83          44.68         0.8616         -14.03          94.87         -13.01          17.95          51.65          96.44
    0.9891              -24.77          15.19          16.72          44.62          0.689          -14.0          99.88         -13.51          20.28          51.22          97.79
     1.006              -24.21          15.52          16.63          44.57         0.5532         -13.97          103.8          -13.9          22.11          50.87          98.85
